<?xml version="1.0" encoding="UTF-8"?>
<svg id="Calque_1" data-name="Calque 1" xmlns="http://www.w3.org/2000/svg" viewBox="0 0 275.52 68.64">
  <defs>
    <style>
      .cls-1 {
        fill: #fff;
      }
    </style>
  </defs>
  <path class="cls-1" d="M214.32,68.64h-66.72c.26-.48,.48-1,.8-1.44,3.16-4.38,6.36-8.73,9.49-13.12,.65-.92,1.38-1.27,2.49-1.26,5.76,.04,11.52,.02,17.28,.01,.49,0,.98-.07,1.76-.13-5.21-7.24-10.25-14.25-15.36-21.35-.38,.47-.61,.74-.82,1.02-4.17,5.72-8.34,11.43-12.49,17.17-2.72,3.76-5.39,7.54-9.05,10.5-7.28,5.9-15.76,8.37-24.96,8.4-21.72,.09-43.43,.04-65.15,0-.69,0-1.52-.29-2.04-.73-11.96-10.26-24.34-20-37.03-29.34-.33-.24-.64-.52-1.23-1.02,.91-.05,1.45-.11,2-.11,9.48-.04,18.96-.05,28.43-.14,2.3-.02,4.52-.59,6.53-1.76,2.12-1.23,3.22-3.03,3.05-5.54-.16-2.39-1.35-4.19-3.53-5-1.95-.73-4.07-1.34-6.13-1.38-7.68-.17-15.36-.09-23.03-.1-6.2-.01-12.4-.03-18.6-.04C0,23.12,0,22.96,0,22.8c.32-.35,.67-.69,.96-1.06,3.49-4.43,6.95-8.88,10.48-13.28,.39-.48,1.17-.93,1.76-.93,10.55,.06,21.11,.01,31.66,.38,5.55,.19,10.83,1.92,15.7,4.73,11.19,6.47,12.24,18.9,8.14,26.53-2.55,4.74-6.49,7.93-11.31,10.15-.41,.19-.8,.4-1.45,.73,1.68,1.01,2.58,2.57,4.6,2.57,18.64-.04,37.28-.02,55.92-.03,3.83,0,7.43-.88,10.74-2.9,7.92-4.81,7.92-14.55,3.72-19.72-3.29-4.05-7.7-6.08-12.83-6.35-4.15-.22-8.32-.12-12.47-.15-1.84-.01-1.9,.06-1.9,1.88,0,7.44,0,14.88,0,22.32,0,1.58-.03,1.59-1.62,1.6-4.52,0-9.04-.04-13.56,.03-1.24,.02-1.54-.4-1.53-1.58,.05-7.44,.02-14.88,.02-22.32,0-1.89-.03-1.92-1.97-1.93-2.68,0-5.36,0-8.04,0-.5,0-1-.09-1.7-.16,.36-.53,.58-.9,.84-1.24,3.37-4.42,6.76-8.82,10.1-13.27,.65-.86,1.35-1.19,2.42-1.18,8.88,.03,17.76-.07,26.64,.06,3.5,.05,7.04,.31,10.48,.92,8.45,1.5,15.71,5.27,21.18,12.09,.11,.14,.29,.23,.54,.42,1.56-2.16,3.08-4.26,4.59-6.37,2.01-2.81,4.64-4.83,7.84-6.12,2.87-1.16,5.77-1.2,8.65-.08,3.46,1.34,6.15,3.62,8.28,6.66,10.19,14.53,20.43,29.04,30.63,43.57,2.3,3.27,4.54,6.57,6.81,9.86Z"/>
  <path class="cls-1" d="M275.52,6.94c-13.51,17.15-27.01,34.32-40.55,51.45-1.16,1.47-2.49,2.87-3.95,4.07-4.13,3.41-8.84,3.39-12.91-.1-1.55-1.33-2.95-2.87-4.19-4.47-8.06-10.41-16.06-20.86-24.08-31.3-.25-.32-.46-.67-.83-1.2,.68-.06,1.13-.12,1.58-.13,6.73,0,13.46,.01,20.19-.02,1.03,0,1.67,.31,2.27,1.11,3.58,4.77,7.21,9.5,10.82,14.25,.3,.39,.61,.78,1.03,1.32,.34-.39,.62-.68,.86-.99,8.48-11.06,16.95-22.11,25.41-33.19,.59-.77,1.2-1.14,2.25-1.13,6.93,.05,13.86,.02,20.79,.03,.44,0,.87,.05,1.31,.07v.23Z"/>
  <path class="cls-1" d="M85.92,0c-.13,.28-.22,.6-.41,.84-4.05,5.54-8.12,11.07-12.18,16.6-.13,.18-.3,.34-.65,.73-.07-.74-.15-1.23-.15-1.71-.01-4.23-.06-8.46,.02-12.69,.03-1.35-.4-2.18-1.62-2.72C70.36,.8,69.88,.36,69.36,0c5.52,0,11.04,0,16.56,0Z"/>
</svg>